<?xml version="1.0" encoding="UTF-8" standalone="no"?>
<!DOCTYPE svg PUBLIC "-//W3C//DTD SVG 1.1//EN"
 "http://www.w3.org/Graphics/SVG/1.1/DTD/svg11.dtd">
<!-- Generated by graphviz version 2.43.0 (0)
 -->
<!-- Title: %3 Pages: 1 -->
<svg width="551pt" height="165pt"
 viewBox="0.00 0.00 551.00 164.74" xmlns="http://www.w3.org/2000/svg" xmlns:xlink="http://www.w3.org/1999/xlink">
<g id="graph0" class="graph" transform="scale(1 1) rotate(0) translate(36 128.74)">
<title>%3</title>
<polygon fill="dimgray" stroke="transparent" points="-36,36 -36,-128.74 515,-128.74 515,36 -36,36"/>
<text text-anchor="middle" x="239.5" y="-77.54" font-family="Helvetica,sans-Serif" font-size="14.00">Sweep&#39;s Plan &amp; Progress</text>
<!-- start -->
<g id="node1" class="node">
<title>start</title>
</g>
<!-- b0e32845&#45;5e91&#45;45ad&#45;aa19&#45;2c2fe2750726 -->
<g id="node3" class="node">
<title>b0e32845&#45;5e91&#45;45ad&#45;aa19&#45;2c2fe2750726</title>
<ellipse fill="yellow" stroke="black" cx="236.5" cy="-26.87" rx="183.7" ry="26.74"/>
<text text-anchor="middle" x="236.5" y="-30.67" font-family="Helvetica,sans-Serif" font-size="14.00">⋯ Create</text>
<text text-anchor="middle" x="236.5" y="-15.67" font-family="Helvetica,sans-Serif" font-size="14.00">.github/workflows/pr&#45;validation.yml</text>
</g>
<!-- start&#45;&gt;b0e32845&#45;5e91&#45;45ad&#45;aa19&#45;2c2fe2750726 -->
<g id="edge1" class="edge">
<title>start&#45;&gt;b0e32845&#45;5e91&#45;45ad&#45;aa19&#45;2c2fe2750726</title>
<path fill="none" stroke="black" d="M1.18,-26.87C4.57,-26.87 20.42,-26.87 42.43,-26.87"/>
<polygon fill="black" stroke="black" points="42.58,-30.37 52.58,-26.87 42.58,-23.37 42.58,-30.37"/>
<text text-anchor="middle" x="26.83" y="-33.67" font-family="Helvetica,sans-Serif" font-size="14.00">Start</text>
</g>
<!-- end -->
<g id="node2" class="node">
<title>end</title>
</g>
<!-- b0e32845&#45;5e91&#45;45ad&#45;aa19&#45;2c2fe2750726&#45;&gt;end -->
<g id="edge2" class="edge">
<title>b0e32845&#45;5e91&#45;45ad&#45;aa19&#45;2c2fe2750726&#45;&gt;end</title>
<path fill="none" stroke="black" d="M420.53,-26.87C440.66,-26.87 457.55,-26.87 467.82,-26.87"/>
<polygon fill="black" stroke="black" points="467.87,-30.37 477.87,-26.87 467.87,-23.37 467.87,-30.37"/>
<text text-anchor="middle" x="449.17" y="-33.67" font-family="Helvetica,sans-Serif" font-size="14.00">Finish</text>
</g>
</g>
</svg>
